Coordinates
version=1
nRows=58
nColumns=6
inDegrees=yes

Units are S.I. units (second, meters, Newtons, ...)
If the header above contains a line with 'inDegrees', this indicates whether rotational values are in degrees (yes) or radians (no).

endheader
time	foot_tx	hip_flexion_r	knee_angle_r	ankle_angle_r	lumbar
    115.90000000	      0.22911677	     13.97582442	     -9.70097240	      1.11459213	     -4.81739592
    115.91000000	      0.22897720	     13.58893191	     -9.33004567	      1.09809085	     -4.35912462
    115.92000000	      0.22885774	     13.21495148	     -8.97516910	      1.08366207	     -3.92609737
    115.93000000	      0.22874675	     12.85579883	     -8.64036271	      1.07367436	     -3.51796901
    115.94000000	      0.22864495	     12.50984203	     -8.32230354	      1.06615168	     -3.13557999
    115.95000000	      0.22855193	     12.17620444	     -8.02242481	      1.06172635	     -2.78096591
    115.96000000	      0.22846930	     11.85465801	     -7.73955926	      1.05958167	     -2.45402840
    115.97000000	      0.22839812	     11.50691891	     -7.46951375	      1.06027115	     -2.19553509
    115.98000000	      0.22834734	     11.22261949	     -7.22478259	      1.06413962	     -1.90806145
    115.99000000	      0.22832099	     10.90292605	     -6.99048543	      1.07036331	     -1.69491087
    116.00000000	      0.22832512	     10.64848645	     -6.77891835	      1.07888705	     -1.44546926
    116.01000000	      0.22836371	     10.35560257	     -6.57573801	      1.08932631	     -1.26895022
    116.02000000	      0.22844116	     10.12866854	     -6.39536493	      1.10244568	     -1.05179338
    116.03000000	      0.22855162	      9.86737348	     -6.22366288	      1.11822877	     -0.90053058
    116.04000000	      0.22869756	      9.66821410	     -6.07340769	      1.13703854	     -0.70976073
    116.05000000	      0.22887354	      9.44113891	     -5.93461667	      1.16008079	     -0.57660796
    116.06000000	      0.22907477	      9.26714637	     -5.81523581	      1.18682269	     -0.41102872
    116.07000000	      0.22929691	      9.09829739	     -5.70987866	      1.21788070	     -0.26384995
    116.08000000	      0.22953119	      8.90309089	     -5.61399686	      1.25365019	     -0.16815902
    116.09000000	      0.22977946	      8.75828894	     -5.53283023	      1.29209798	     -0.03620615
    116.10000000	      0.23004007	      8.61658630	     -5.45850537	      1.33233685	      0.08233608
    116.11000000	      0.23030974	      8.44729722	     -5.38520764	      1.37353614	      0.15636740
    116.12000000	      0.23059376	      8.32284697	     -5.31785869	      1.41341495	      0.26753579
    116.13000000	      0.23089066	      8.17094829	     -5.24728996	      1.45193663	      0.33879035
    116.14000000	      0.23119357	      8.05508917	     -5.17590981	      1.48666115	      0.44250806
    116.15000000	      0.23150097	      7.90744266	     -5.09668263	      1.51835624	      0.50547370
    116.16000000	      0.23180940	      7.79677687	     -5.01544276	      1.54569387	      0.60428341
    116.17000000	      0.23211381	      7.64938628	     -4.92431722	      1.56949678	      0.65841495
    116.18000000	      0.23240245	      7.54211442	     -4.82947400	      1.58856781	      0.75296703
    116.19000000	      0.23267386	      7.39489273	     -4.72384633	      1.60428064	      0.79946394
    116.20000000	      0.23291897	      7.29324977	     -4.61756406	      1.61694803	      0.89163743
    116.21000000	      0.23313090	      7.14354242	     -4.49806026	      1.62653329	      0.92864501
    116.22000000	      0.23330282	      7.04501515	     -4.37828373	      1.63377176	      1.01897972
    116.23000000	      0.23341975	      6.89784215	     -4.24584964	      1.63975034	      1.05480041
    116.24000000	      0.23348954	      6.80170935	     -4.11157111	      1.64326105	      1.14651821
    116.25000000	      0.23350455	      6.65799580	     -3.96265868	      1.64455306	      1.18754524
    116.26000000	      0.23347271	      6.56301967	     -3.81195408	      1.64356438	      1.28237549
    116.27000000	      0.23338716	      6.42486399	     -3.64914502	      1.64127973	      1.32961703
    116.28000000	      0.23327193	      6.33272921	     -3.48613889	      1.63645955	      1.42509534
    116.29000000	      0.23313247	      6.20190721	     -3.31363958	      1.62952561	      1.47534210
    116.30000000	      0.23298673	      6.11568132	     -3.14531019	      1.62087262	      1.56766398
    116.31000000	      0.23283500	      5.99409798	     -2.97426199	      1.61215265	      1.61332694
    116.32000000	      0.23269974	      5.91728264	     -2.81336108	      1.60327362	      1.69624528
    116.33000000	      0.23257737	      5.80452882	     -2.65410570	      1.59552485	      1.72892844
    116.34000000	      0.23248192	      5.73869798	     -2.51071607	      1.58965604	      1.79739274
    116.35000000	      0.23240865	      5.63805215	     -2.37397733	      1.58674016	      1.81367564
    116.36000000	      0.23236343	      5.58540398	     -2.25671482	      1.58745990	      1.86583468
    116.37000000	      0.23233844	      5.50134492	     -2.14973233	      1.59283493	      1.86860875
    116.38000000	      0.23233746	      5.46153346	     -2.06330292	      1.60301135	      1.90452003
    116.39000000	      0.23235623	      5.42496083	     -1.99159800	      1.61766169	      1.92848113
    116.40000000	      0.23239555	      5.39165371	     -1.93403821	      1.63667084	      1.94301975
    116.41000000	      0.23244801	      5.33860782	     -1.88999181	      1.66136149	      1.92109332
    116.42000000	      0.23252458	      5.32635784	     -1.86081489	      1.68815659	      1.93355646
    116.43000000	      0.23261106	      5.32047625	     -1.84670511	      1.71999896	      1.94012183
    116.44000000	      0.23272529	      5.31648842	     -1.83512232	      1.75032541	      1.94518290
    116.45000000	      0.23285182	      5.31814582	     -1.83447976	      1.78380678	      1.94753401
    116.46000000	      0.23298208	      5.32388663	     -1.84039889	      1.81903257	      1.94873330
    116.47000000	      0.23311779	      5.33202461	     -1.84972251	      1.85455870	      1.94993541
